<svg xmlns="http://www.w3.org/2000/svg" xmlns:xlink="http://www.w3.org/1999/xlink" xmlns:inkscape="http://www.inkscape.org/namespaces/inkscape" version="1.1" width="132" height="116" viewBox="0 0 132 116">
<defs>
<path id="font_1_4" d="M.33399964 .30233766C.33999635 .32835389 .36299134 .42037965 .43299867 .42037965 .43798829 .42037965 .46199037 .42037965 .48298646 .40734864 .45498658 .402359 .43499757 .37734986 .43499757 .35334779 .43499757 .33735658 .44599916 .31835938 .47299195 .31835938 .49499513 .31835938 .5269928 .3363495 .5269928 .37635804 .5269928 .42837525 .46798707 .4423828 .43399049 .4423828 .37599183 .4423828 .34098817 .38935853 .32899476 .36634828 .3039856 .43237306 .25 .4423828 .22099304 .4423828 .116989139 .4423828 .05999756 .3133545 .05999756 .28834535 .05999756 .27833558 .069992069 .27833558 .07199097 .27833558 .07998657 .27833558 .08299255 .28033448 .084991458 .28933717 .11898804 .39535523 .18499756 .42037965 .21899414 .42037965 .23799134 .42037965 .272995 .4113617 .272995 .35334779 .272995 .32235719 .2559967 .25532533 .21899414 .11528015 .20298767 .053268434 .16799927 .011245728 .12399292 .011245728 .117996219 .011245728 .09498596 .011245728 .07398987 .024276734 .09899902 .029266358 .12098694 .05027771 .12098694 .07827759 .12098694 .105270389 .09899902 .11328125 .083999637 .11328125 .053985597 .11328125 .0289917 .08728027 .0289917 .055267335 .0289917 .009246826 .07899475-.0107421879 .12298584-.0107421879 .18899536-.0107421879 .22499085 .059280397 .22799683 .0652771 .23999024 .028274537 .27598573-.0107421879 .33599855-.0107421879 .43899537-.0107421879 .49598695 .118270877 .49598695 .14328003 .49598695 .1532898 .4869995 .1532898 .48399354 .1532898 .47499085 .1532898 .47299195 .14929199 .47099305 .14228821 .43798829 .03527832 .36999513 .011245728 .33799745 .011245728 .29899598 .011245728 .2829895 .043273927 .2829895 .07727051 .2829895 .09927368 .2889862 .121276859 .2999878 .16529846L.33399964 .30233766Z"/>
<path id="font_2_1" d="M.33499146 .63612368C.33499146 .6630554 .33299256 .6640625 .30499269 .6640625 .24099732 .6014404 .1499939 .6004486 .10899353 .6004486V.5644531C.1329956 .5644531 .19898987 .5644531 .2539978 .592453V.08203125C.2539978 .04899597 .2539978 .035995485 .1539917 .035995485H.115997318V0C.13398743 .0009918213 .25698854 .0039978029 .2939911 .0039978029 .32499696 .0039978029 .45098878 .0009918213 .47299195 0V.035995485H.43499757C.33499146 .035995485 .33499146 .04899597 .33499146 .08203125V.63612368Z"/>
<path id="font_2_2" d="M.5049896 .18203736H.47099305C.46798707 .16001892 .45799256 .100997928 .44499208 .09098816 .43699647 .084991458 .3600006 .084991458 .34599305 .084991458H.1619873C.2669983 .17803955 .3019867 .20603943 .3619995 .25306703 .43598939 .312088 .5049896 .374115 .5049896 .46914674 .5049896 .5900879 .39898683 .6640625 .2709961 .6640625 .14698792 .6640625 .06298828 .57710269 .06298828 .4851532 .06298828 .43414308 .10598755 .42915345 .115997318 .42915345 .13999939 .42915345 .16899109 .44615174 .16899109 .48214723 .16899109 .5001526 .1619873 .53515627 .10998535 .53515627 .14099121 .6060791 .20899964 .62805178 .2559967 .62805178 .35598756 .62805178 .4079895 .5501404 .4079895 .46914674 .4079895 .38212586 .34599305 .3130951 .31399537 .27708436L.07299805 .038986207C.06298828 .02999878 .06298828 .027999878 .06298828 0H.47499085L.5049896 .18203736Z"/>
<path id="font_1_1" d="M.19198609 .052993776C.19198609 .08198547 .16799927 .10598755 .13899231 .10598755 .10998535 .10598755 .085998538 .08198547 .085998538 .052993776 .085998538 .023986817 .10998535 0 .13899231 0 .16799927 0 .19198609 .023986817 .19198609 .052993776Z"/>
<path id="font_3_2" d="M.12199402 .06324768C.117996219 .050247194 .11199951 .025222779 .11199951 .022232056 .11199951 .00022888184 .12998963-.009765625 .1459961-.009765625 .1639862-.009765625 .17999268 .0032196046 .18499756 .01222229 .18998719 .021224976 .19799805 .053237916 .20298767 .07424927 .20799256 .09326172 .21899414 .13928223 .22499085 .16429138 .23098755 .18629456 .23699951 .20831299 .24198914 .23132324 .25299073 .27233888 .25498963 .28033448 .28399659 .32136537 .31199647 .3613739 .35899354 .4133911 .43399049 .4133911 .49198915 .4133911 .49299623 .36238099 .49299623 .34336854 .49299623 .28334046 .44999696 .17228699 .43399049 .13027954 .4229889 .102264408 .4189911 .09326172 .4189911 .07624817 .4189911 .023223877 .46299745-.009765625 .5139923-.009765625 .6139984-.009765625 .6579895 .12828064 .6579895 .14328003 .6579895 .15628052 .644989 .15628052 .6419983 .15628052 .6279907 .15628052 .6269989 .15028382 .6230011 .13928223 .59999087 .059249879 .5569916 .018234253 .5169983 .018234253 .49598695 .018234253 .49198915 .032226564 .49198915 .053237916 .49198915 .07624817 .49699403 .089263919 .5149994 .13427735 .5269928 .1652832 .56799319 .2713318 .56799319 .32736207 .56799319 .4243927 .4909973 .44140626 .43798829 .44140626 .35499574 .44140626 .29899598 .39038087 .2689972 .3503723 .2619934 .41940309 .20298767 .44140626 .1619873 .44140626 .11898804 .44140626 .09599304 .4104004 .08299255 .38739015 .06098938 .3503723 .04699707 .29335023 .04699707 .28834535 .04699707 .27534486 .06098938 .27534486 .06399536 .27534486 .07798767 .27534486 .07899475 .27833558 .085998538 .3053589 .100997928 .36437989 .11999512 .4133911 .15899658 .4133911 .18499756 .4133911 .19198609 .39138795 .19198609 .36437989 .19198609 .34536744 .18299866 .3083496 .17599488 .28134156 .16899109 .2543335 .15899658 .21331787 .1539917 .19129944L.12199402 .06324768Z"/>
<path id="font_1_2" d="M.37298585 .37835694C.35499574 .41537477 .32598878 .4423828 .2809906 .4423828 .1639862 .4423828 .039993287 .29533387 .039993287 .14929199 .039993287 .055267335 .09498596-.0107421879 .17298889-.0107421879 .19299317-.0107421879 .24299622-.0067443849 .30299378 .06427002 .31098939 .022247315 .34599305-.0107421879 .3939972-.0107421879 .42900086-.0107421879 .45199586 .012252808 .46798707 .044265748 .4850006 .08027649 .49798585 .14129639 .49798585 .14329529 .49798585 .1532898 .4889984 .1532898 .48599244 .1532898 .47599793 .1532898 .47499085 .14929199 .47200013 .13528443 .45498658 .07026672 .43699647 .011245728 .3959961 .011245728 .36898805 .011245728 .3659973 .037261964 .3659973 .057266237 .3659973 .07926941 .36799623 .08728027 .3789978 .13128662 .3899994 .17329407 .3919983 .18330384 .40098573 .22131348L.43699647 .36135865C.44400025 .38935853 .44400025 .39135743 .44400025 .39537049 .44400025 .41236878 .43199159 .42237855 .4149933 .42237855 .3909912 .42237855 .37599183 .4003601 .37298585 .37835694M.30799867 .119277957C.30299378 .10127258 .30299378 .09927368 .28799439 .08227539 .24398804 .027252198 .20298767 .011245728 .1749878 .011245728 .125 .011245728 .11099243 .06626892 .11099243 .105285648 .11099243 .1552887 .14299011 .27833558 .1659851 .32434083 .19699097 .38336183 .24198914 .42037965 .28199769 .42037965 .34700013 .42037965 .36099244 .3383484 .36099244 .33235169 .36099244 .32633973 .35899354 .32034303 .35798646 .31533814L.30799867 .119277957Z"/>
<path id="font_1_3" d="M.23899842 .68333438C.23899842 .6843262 .23899842 .69433596 .22599793 .69433596 .20298767 .69433596 .12998963 .6863251 .10398865 .6843262 .09599304 .68333438 .084991458 .6823273 .084991458 .6643219 .084991458 .6523285 .09399414 .6523285 .10899353 .6523285 .15699768 .6523285 .15899658 .6453247 .15899658 .6353302 .15899658 .6283264 .1499939 .5943451 .14498902 .573349L.06298828 .24731446C.050994874 .1973114 .04699707 .18130493 .04699707 .14628601 .04699707 .05126953 .099990848-.0107421879 .17399597-.0107421879 .2919922-.0107421879 .4149933 .1382904 .4149933 .28233338 .4149933 .37335206 .3619995 .4423828 .28199769 .4423828 .23599243 .4423828 .19499207 .41337586 .16499329 .38235475L.23899842 .68333438M.14498902 .30534364C.15098572 .3273468 .15098572 .3293457 .1599884 .3403473 .20899964 .405365 .2539978 .42037965 .27999879 .42037965 .31599427 .42037965 .34298707 .3903656 .34298707 .32633973 .34298707 .26733399 .30999757 .15229798 .2919922 .11428833 .25898744 .04725647 .21299744 .011245728 .17399597 .011245728 .13999939 .011245728 .10699463 .038253786 .10699463 .11227417 .10699463 .13128662 .10699463 .15029907 .12298584 .21331787L.14498902 .30534364Z"/>
<path id="font_4_88" d="M.19198609 .052993776C.19198609 .08198547 .16799927 .10598755 .13899231 .10598755 .10998535 .10598755 .085998538 .08198547 .085998538 .052993776 .085998538 .023986817 .10998535 0 .13899231 0 .16799927 0 .19198609 .023986817 .19198609 .052993776Z"/>
<path id="font_3_1" d="M.43399049 .08125305C.42900086 .06124878 .41999818 .027236939 .41999818 .022232056 .41999818 .00022888184 .43798829-.009765625 .45399476-.009765625 .47200013-.009765625 .48799134 .0032196046 .49299623 .01222229 .49798585 .021224976 .5059967 .053237916 .5109863 .07424927 .5159912 .09326172 .5269928 .13928223 .5329895 .16429138 .5389862 .18629456 .54499819 .20831299 .5499878 .23132324 .5609894 .27433778 .5609894 .27633668 .58099368 .3073578 .61299136 .35636903 .6629944 .4133911 .7409973 .4133911 .7969971 .4133911 .7999878 .36738587 .7999878 .34336854 .7999878 .28334046 .7569885 .17228699 .7409973 .13027954 .7299957 .102264408 .7259979 .09326172 .7259979 .07624817 .7259979 .023223877 .769989-.009765625 .82099917-.009765625 .92099-.009765625 .96499636 .12828064 .96499636 .14328003 .96499636 .15628052 .95199587 .15628052 .94898989 .15628052 .93499758 .15628052 .9339905 .15028382 .9299927 .13928223 .9069977 .059249879 .8639984 .018234253 .82398989 .018234253 .8029938 .018234253 .798996 .032226564 .798996 .053237916 .798996 .07624817 .80400088 .089263919 .82199099 .13427735 .83399966 .1652832 .875 .2713318 .875 .32736207 .875 .34336854 .875 .38539125 .83799746 .4143982 .82099917 .42739869 .7919922 .44140626 .7449951 .44140626 .6549988 .44140626 .59999087 .38238526 .56799319 .34036256 .55999758 .42539979 .4889984 .44140626 .43798829 .44140626 .35499574 .44140626 .29899598 .39038087 .2689972 .3503723 .2619934 .41940309 .20298767 .44140626 .1619873 .44140626 .11898804 .44140626 .09599304 .4104004 .08299255 .38739015 .06098938 .3503723 .04699707 .29335023 .04699707 .28834535 .04699707 .27534486 .06098938 .27534486 .06399536 .27534486 .07798767 .27534486 .07899475 .27833558 .085998538 .3053589 .100997928 .36437989 .11999512 .4133911 .15899658 .4133911 .18499756 .4133911 .19198609 .39138795 .19198609 .36437989 .19198609 .34536744 .18299866 .3083496 .17599488 .28134156 .16899109 .2543335 .15899658 .21331787 .1539917 .19129944L.12199402 .06324768C.117996219 .050247194 .11199951 .025222779 .11199951 .022232056 .11199951 .00022888184 .12998963-.009765625 .1459961-.009765625 .1639862-.009765625 .17999268 .0032196046 .18499756 .01222229 .18998719 .021224976 .19799805 .053237916 .20298767 .07424927 .20799256 .09326172 .21899414 .13928223 .22499085 .16429138 .23098755 .18629456 .23699951 .20831299 .24198914 .23132324 .25299073 .27233888 .25498963 .28033448 .28399659 .32136537 .31199647 .3613739 .35899354 .4133911 .43399049 .4133911 .49198915 .4133911 .49299623 .36238099 .49299623 .34336854 .49299623 .31835938 .48999024 .3053589 .47599793 .24932862L.43399049 .08125305Z"/>
<path id="font_5_1" d="M.32598878-1.7597656H.394989V-.029937745H.6589966V.0390625H.32598878V-1.7597656Z"/>
<path id="font_5_5" d="M.32598878-.60058596H.394989V.0014343262H.32598878V-.60058596Z"/>
<path id="font_5_3" d="M.32598878-1.7587891H.6589966V-1.6898041H.394989V.040039064H.32598878V-1.7587891Z"/>
<path id="font_5_2" d="M.2709961-1.7597656H.33999635V.0390625H.0069885256V-.029937745H.2709961V-1.7597656Z"/>
<path id="font_5_6" d="M.2709961-.60058596H.33999635V.0014343262H.2709961V-.60058596Z"/>
<path id="font_5_4" d="M.2709961-1.6898041H.0069885256V-1.7587891H.33999635V.040039064H.2709961V-1.6898041Z"/>
</defs>
<use data-text="x" xlink:href="#font_1_4" transform="matrix(9.9626,0,0,-9.9626,10.01001,5.9769976)"/>
<use data-text="1" xlink:href="#font_2_1" transform="matrix(6.9738,0,0,-6.9738,15.70401,7.470997)"/>
<use data-text="x" xlink:href="#font_1_4" transform="matrix(9.9626,0,0,-9.9626,35.587007,5.9769976)"/>
<use data-text="2" xlink:href="#font_2_2" transform="matrix(6.9738,0,0,-6.9738,41.281007,7.470997)"/>
<use data-text="." xlink:href="#font_1_1" transform="matrix(9.9626,0,0,-9.9626,60.435014,5.9769976)"/>
<use data-text="." xlink:href="#font_1_1" transform="matrix(9.9626,0,0,-9.9626,64.84845,5.9769976)"/>
<use data-text="." xlink:href="#font_1_1" transform="matrix(9.9626,0,0,-9.9626,69.271839,5.9769976)"/>
<use data-text="x" xlink:href="#font_1_4" transform="matrix(9.9626,0,0,-9.9626,86.265,5.9769976)"/>
<use data-text="n" xlink:href="#font_3_2" transform="matrix(6.9738,0,0,-6.9738,91.959,7.470997)"/>
<use data-text="a" xlink:href="#font_1_2" transform="matrix(9.9626,0,0,-9.9626,8.238007,31.553999)"/>
<use data-text="1" xlink:href="#font_2_1" transform="matrix(6.9738,0,0,-6.9738,13.504013,33.047998)"/>
<use data-text="1" xlink:href="#font_2_1" transform="matrix(6.9738,0,0,-6.9738,17.472107,33.047998)"/>
<use data-text="a" xlink:href="#font_1_2" transform="matrix(9.9626,0,0,-9.9626,33.815004,31.553999)"/>
<use data-text="1" xlink:href="#font_2_1" transform="matrix(6.9738,0,0,-6.9738,39.082,33.047998)"/>
<use data-text="2" xlink:href="#font_2_2" transform="matrix(6.9738,0,0,-6.9738,43.050096,33.047998)"/>
<use data-text="." xlink:href="#font_1_1" transform="matrix(9.9626,0,0,-9.9626,60.435014,31.553999)"/>
<use data-text="." xlink:href="#font_1_1" transform="matrix(9.9626,0,0,-9.9626,64.84845,31.553999)"/>
<use data-text="." xlink:href="#font_1_1" transform="matrix(9.9626,0,0,-9.9626,69.271839,31.553999)"/>
<use data-text="a" xlink:href="#font_1_2" transform="matrix(9.9626,0,0,-9.9626,84.84599,31.553999)"/>
<use data-text="n" xlink:href="#font_3_2" transform="matrix(6.9738,0,0,-6.9738,90.111988,33.047998)"/>
<use data-text="1" xlink:href="#font_2_1" transform="matrix(6.9738,0,0,-6.9738,95.03697,33.047998)"/>
<use data-text="b" xlink:href="#font_1_3" transform="matrix(9.9626,0,0,-9.9626,113.02901,31.553999)"/>
<use data-text="1" xlink:href="#font_2_1" transform="matrix(6.9738,0,0,-6.9738,117.304,33.047998)"/>
<use data-text="a" xlink:href="#font_1_2" transform="matrix(9.9626,0,0,-9.9626,8.238007,57.132)"/>
<use data-text="2" xlink:href="#font_2_2" transform="matrix(6.9738,0,0,-6.9738,13.504013,58.626)"/>
<use data-text="1" xlink:href="#font_2_1" transform="matrix(6.9738,0,0,-6.9738,17.472107,58.626)"/>
<use data-text="a" xlink:href="#font_1_2" transform="matrix(9.9626,0,0,-9.9626,33.815004,57.132)"/>
<use data-text="2" xlink:href="#font_2_2" transform="matrix(6.9738,0,0,-6.9738,39.082,58.626)"/>
<use data-text="2" xlink:href="#font_2_2" transform="matrix(6.9738,0,0,-6.9738,43.050096,58.626)"/>
<use data-text="." xlink:href="#font_1_1" transform="matrix(9.9626,0,0,-9.9626,60.435014,57.132)"/>
<use data-text="." xlink:href="#font_1_1" transform="matrix(9.9626,0,0,-9.9626,64.84845,57.132)"/>
<use data-text="." xlink:href="#font_1_1" transform="matrix(9.9626,0,0,-9.9626,69.271839,57.132)"/>
<use data-text="a" xlink:href="#font_1_2" transform="matrix(9.9626,0,0,-9.9626,84.97002,57.132)"/>
<use data-text="2" xlink:href="#font_2_2" transform="matrix(6.9738,0,0,-6.9738,90.237018,58.626)"/>
<use data-text="1" xlink:href="#font_2_1" transform="matrix(6.9738,0,0,-6.9738,94.20509,58.626)"/>
<use data-text="b" xlink:href="#font_1_3" transform="matrix(9.9626,0,0,-9.9626,113.02901,57.132)"/>
<use data-text="2" xlink:href="#font_2_2" transform="matrix(6.9738,0,0,-6.9738,117.304,58.626)"/>
<use data-text="." xlink:href="#font_4_88" transform="matrix(9.9626,0,0,-9.9626,13.706009,74.739)"/>
<use data-text="." xlink:href="#font_4_88" transform="matrix(9.9626,0,0,-9.9626,13.706009,78.724)"/>
<use data-text="." xlink:href="#font_4_88" transform="matrix(9.9626,0,0,-9.9626,13.706009,82.709)"/>
<use data-text="." xlink:href="#font_4_88" transform="matrix(9.9626,0,0,-9.9626,39.28401,74.739)"/>
<use data-text="." xlink:href="#font_4_88" transform="matrix(9.9626,0,0,-9.9626,39.28401,78.724)"/>
<use data-text="." xlink:href="#font_4_88" transform="matrix(9.9626,0,0,-9.9626,39.28401,82.709)"/>
<use data-text="." xlink:href="#font_4_88" transform="matrix(9.9626,0,0,-9.9626,60.985,75.735)"/>
<use data-text="." xlink:href="#font_4_88" transform="matrix(9.9626,0,0,-9.9626,64.86101,78.724)"/>
<use data-text="." xlink:href="#font_4_88" transform="matrix(9.9626,0,0,-9.9626,68.73802,81.713008)"/>
<use data-text="." xlink:href="#font_4_88" transform="matrix(9.9626,0,0,-9.9626,90.43901,74.739)"/>
<use data-text="." xlink:href="#font_4_88" transform="matrix(9.9626,0,0,-9.9626,90.43901,78.724)"/>
<use data-text="." xlink:href="#font_4_88" transform="matrix(9.9626,0,0,-9.9626,90.43901,82.709)"/>
<use data-text="." xlink:href="#font_4_88" transform="matrix(9.9626,0,0,-9.9626,116.01701,74.739)"/>
<use data-text="." xlink:href="#font_4_88" transform="matrix(9.9626,0,0,-9.9626,116.01701,78.724)"/>
<use data-text="." xlink:href="#font_4_88" transform="matrix(9.9626,0,0,-9.9626,116.01701,82.709)"/>
<use data-text="a" xlink:href="#font_1_2" transform="matrix(9.9626,0,0,-9.9626,8.114014,108.287)"/>
<use data-text="m" xlink:href="#font_3_1" transform="matrix(6.9738,0,0,-6.9738,13.38002,109.781009)"/>
<use data-text="1" xlink:href="#font_2_1" transform="matrix(6.9738,0,0,-6.9738,20.44902,109.781009)"/>
<use data-text="a" xlink:href="#font_1_2" transform="matrix(9.9626,0,0,-9.9626,33.69101,108.287)"/>
<use data-text="m" xlink:href="#font_3_1" transform="matrix(6.9738,0,0,-6.9738,38.957017,109.781009)"/>
<use data-text="2" xlink:href="#font_2_2" transform="matrix(6.9738,0,0,-6.9738,46.027025,109.781009)"/>
<use data-text="." xlink:href="#font_1_1" transform="matrix(9.9626,0,0,-9.9626,60.435014,108.287)"/>
<use data-text="." xlink:href="#font_1_1" transform="matrix(9.9626,0,0,-9.9626,64.84845,108.287)"/>
<use data-text="." xlink:href="#font_1_1" transform="matrix(9.9626,0,0,-9.9626,69.271839,108.287)"/>
<use data-text="a" xlink:href="#font_1_2" transform="matrix(9.9626,0,0,-9.9626,84.84599,108.287)"/>
<use data-text="m" xlink:href="#font_3_1" transform="matrix(6.9738,0,0,-6.9738,90.111988,109.781009)"/>
<use data-text="1" xlink:href="#font_2_1" transform="matrix(6.9738,0,0,-6.9738,97.18199,109.781009)"/>
<use data-text="b" xlink:href="#font_1_3" transform="matrix(9.9626,0,0,-9.9626,111.479999,108.287)"/>
<use data-text="m" xlink:href="#font_3_1" transform="matrix(6.9738,0,0,-6.9738,115.75499,109.781009)"/>
<use data-text="&#xf8ee;" xlink:href="#font_5_1" transform="matrix(9.9626,0,0,-9.9626,-1.4490051,21.728999)"/>
<use data-text="&#xf8ef;" xlink:href="#font_5_5" transform="matrix(9.9626,0,0,-9.9626,-1.4490051,39.264)"/>
<use data-text="&#xf8ef;" xlink:href="#font_5_5" transform="matrix(9.9626,0,0,-9.9626,-1.4490051,45.240999)"/>
<use data-text="&#xf8ef;" xlink:href="#font_5_5" transform="matrix(9.9626,0,0,-9.9626,-1.4490051,51.218999)"/>
<use data-text="&#xf8ef;" xlink:href="#font_5_5" transform="matrix(9.9626,0,0,-9.9626,-1.4490051,57.197)"/>
<use data-text="&#xf8ef;" xlink:href="#font_5_5" transform="matrix(9.9626,0,0,-9.9626,-1.4490051,63.174)"/>
<use data-text="&#xf8ef;" xlink:href="#font_5_5" transform="matrix(9.9626,0,0,-9.9626,-1.4490051,69.152)"/>
<use data-text="&#xf8ef;" xlink:href="#font_5_5" transform="matrix(9.9626,0,0,-9.9626,-1.4490051,75.129)"/>
<use data-text="&#xf8ef;" xlink:href="#font_5_5" transform="matrix(9.9626,0,0,-9.9626,-1.4490051,81.107)"/>
<use data-text="&#xf8ef;" xlink:href="#font_5_5" transform="matrix(9.9626,0,0,-9.9626,-1.4490051,87.085)"/>
<use data-text="&#xf8f0;" xlink:href="#font_5_3" transform="matrix(9.9626,0,0,-9.9626,-1.4490051,93.461)"/>
<use data-text="&#xf8f9;" xlink:href="#font_5_2" transform="matrix(9.9626,0,0,-9.9626,127.304,21.728999)"/>
<use data-text="&#xf8fa;" xlink:href="#font_5_6" transform="matrix(9.9626,0,0,-9.9626,127.304,39.264)"/>
<use data-text="&#xf8fa;" xlink:href="#font_5_6" transform="matrix(9.9626,0,0,-9.9626,127.304,45.240999)"/>
<use data-text="&#xf8fa;" xlink:href="#font_5_6" transform="matrix(9.9626,0,0,-9.9626,127.304,51.218999)"/>
<use data-text="&#xf8fa;" xlink:href="#font_5_6" transform="matrix(9.9626,0,0,-9.9626,127.304,57.197)"/>
<use data-text="&#xf8fa;" xlink:href="#font_5_6" transform="matrix(9.9626,0,0,-9.9626,127.304,63.174)"/>
<use data-text="&#xf8fa;" xlink:href="#font_5_6" transform="matrix(9.9626,0,0,-9.9626,127.304,69.152)"/>
<use data-text="&#xf8fa;" xlink:href="#font_5_6" transform="matrix(9.9626,0,0,-9.9626,127.304,75.129)"/>
<use data-text="&#xf8fa;" xlink:href="#font_5_6" transform="matrix(9.9626,0,0,-9.9626,127.304,81.107)"/>
<use data-text="&#xf8fa;" xlink:href="#font_5_6" transform="matrix(9.9626,0,0,-9.9626,127.304,87.085)"/>
<use data-text="&#xf8fb;" xlink:href="#font_5_4" transform="matrix(9.9626,0,0,-9.9626,127.304,93.461)"/>
<path transform="matrix(1,0,0,-1,53.459,53.374)" stroke-width=".3985" stroke-linecap="butt" stroke-miterlimit="10" stroke-linejoin="miter" fill="none" stroke="#000000" d="M48.86424 25.57784V-61.65317"/>
</svg>
