<svg xmlns="http://www.w3.org/2000/svg" xmlns:xlink="http://www.w3.org/1999/xlink" xmlns:inkscape="http://www.inkscape.org/namespaces/inkscape" version="1.1" width="100" height="75" viewBox="0 0 100 75">
<defs>
<path id="font_1_1" d="M.45999146 .31976319C.45999146 .39982606 .45498658 .47988893 .41999818 .5539398 .37399293 .65000918 .2919922 .6660156 .25 .6660156 .18998719 .6660156 .116989139 .64001467 .07598877 .54693606 .04399109 .47789 .038986207 .39982606 .038986207 .31976319 .038986207 .24472046 .042999269 .15464783 .083999637 .07859802 .1269989-.0024719239 .19999695-.022460938 .24899292-.022460938 .30299378-.022460938 .3789978-.0014648438 .4229889 .09359741 .45498658 .16265869 .45999146 .2407074 .45999146 .31976319M.24899292-.00047302247C.20999146-.00047302247 .15098572 .024551392 .1329956 .12062073 .12199402 .18066406 .12199402 .2727356 .12199402 .3317871 .12199402 .39582826 .12199402 .46188355 .12998963 .5159149 .14898682 .63500979 .22399903 .64401248 .24899292 .64401248 .28199769 .64401248 .34799195 .6259918 .36698915 .52693179 .3769989 .47088624 .3769989 .39482118 .3769989 .3317871 .3769989 .25672914 .3769989 .18867493 .3659973 .12461853 .35099793 .029556275 .2939911-.00047302247 .24899292-.00047302247Z"/>
<path id="font_1_2" d="M.2939911 .64004519C.2939911 .66400149 .2939911 .6660156 .2709961 .6660156 .20899964 .60227969 .12098694 .60227969 .08898926 .60227969V.57128909C.10899353 .57128909 .16799927 .57128909 .21998596 .5972748V.07902527C.21998596 .042999269 .21699524 .0309906 .1269989 .0309906H.09498596V0C.12998963 .0029907227 .21699524 .0029907227 .25698854 .0029907227 .29699708 .0029907227 .38398744 .0029907227 .4189911 0V.0309906H.3869934C.29699708 .0309906 .2939911 .041992189 .2939911 .07902527V.64004519Z"/>
<path id="font_2_1" d="M.2749939 .42684938C.27598573 .44084168 .27598573 .46484376 .25 .46484376 .23399353 .46484376 .22099304 .45184327 .22399903 .43884278V.42585755L.23799134 .27098084 .10998535 .36390687C.100997928 .36889649 .09899902 .3708954 .09199524 .3708954 .07798767 .3708954 .06498718 .35691834 .06498718 .34292604 .06498718 .3269348 .07499695 .322937 .084991458 .3179474L.22698975 .25 .08898926 .18305969C.07299805 .17506409 .06498718 .17106629 .06498718 .15608216 .06498718 .14109802 .07798767 .1281128 .09199524 .1281128 .09899902 .1281128 .100997928 .1281128 .12599182 .14709473L.23799134 .22802735 .22299195 .060165407C.22299195 .03916931 .24099732 .034179689 .24899292 .034179689 .26098634 .034179689 .27598573 .041168214 .27598573 .060165407L.26098634 .22802735 .3889923 .13510132C.397995 .1301117 .3999939 .1281128 .40699769 .1281128 .42099 .1281128 .43399049 .14208985 .43399049 .15608216 .43399049 .17106629 .4249878 .17607117 .41299439 .18206787 .35299684 .21203614 .35099793 .21203614 .27198792 .24900818L.4099884 .3159485C.42599488 .3239441 .43399049 .3279419 .43399049 .34292604 .43399049 .35791017 .42099 .3708954 .40699769 .3708954 .3999939 .3708954 .397995 .3708954 .37298585 .35191346L.26098634 .27098084 .2749939 .42684938Z"/>
<path id="font_3_1" d="M.32598878-1.7597656H.394989V-.029937745H.6589966V.0390625H.32598878V-1.7597656Z"/>
<path id="font_3_5" d="M.32598878-.60058596H.394989V.0014343262H.32598878V-.60058596Z"/>
<path id="font_3_3" d="M.32598878-1.7587891H.6589966V-1.6898041H.394989V.040039064H.32598878V-1.7587891Z"/>
<path id="font_3_2" d="M.2709961-1.7597656H.33999635V.0390625H.0069885256V-.029937745H.2709961V-1.7597656Z"/>
<path id="font_3_6" d="M.2709961-.60058596H.33999635V.0014343262H.2709961V-.60058596Z"/>
<path id="font_3_4" d="M.2709961-1.6898041H.0069885256V-1.7587891H.33999635V.040039064H.2709961V-1.6898041Z"/>
</defs>
<use data-text="0" xlink:href="#font_1_1" transform="matrix(9.962799,0,0,-9.9626,12.572952,14.861)"/>
<use data-text="1" xlink:href="#font_1_2" transform="matrix(9.962799,0,0,-9.9626,24.196183,14.861)"/>
<use data-text="&#x2217;" xlink:href="#font_2_1" transform="matrix(9.962799,0,0,-9.9626,35.81842,14.861)"/>
<use data-text="&#x2217;" xlink:href="#font_2_1" transform="matrix(9.962799,0,0,-9.9626,47.440645,14.861)"/>
<use data-text="&#x2217;" xlink:href="#font_2_1" transform="matrix(9.962799,0,0,-9.9626,59.06389,14.861)"/>
<use data-text="&#x2217;" xlink:href="#font_2_1" transform="matrix(9.962799,0,0,-9.9626,70.68611,14.861)"/>
<use data-text="&#x2217;" xlink:href="#font_2_1" transform="matrix(9.962799,0,0,-9.9626,82.30835,14.861)"/>
<use data-text="0" xlink:href="#font_1_1" transform="matrix(9.962799,0,0,-9.9626,12.572952,27.922)"/>
<use data-text="0" xlink:href="#font_1_1" transform="matrix(9.962799,0,0,-9.9626,24.196183,27.922)"/>
<use data-text="0" xlink:href="#font_1_1" transform="matrix(9.962799,0,0,-9.9626,35.81842,27.922)"/>
<use data-text="1" xlink:href="#font_1_2" transform="matrix(9.962799,0,0,-9.9626,47.440645,27.922)"/>
<use data-text="&#x2217;" xlink:href="#font_2_1" transform="matrix(9.962799,0,0,-9.9626,59.06389,27.922)"/>
<use data-text="&#x2217;" xlink:href="#font_2_1" transform="matrix(9.962799,0,0,-9.9626,70.68611,27.922)"/>
<use data-text="&#x2217;" xlink:href="#font_2_1" transform="matrix(9.962799,0,0,-9.9626,82.30835,27.922)"/>
<use data-text="0" xlink:href="#font_1_1" transform="matrix(9.962799,0,0,-9.9626,12.572952,40.983)"/>
<use data-text="0" xlink:href="#font_1_1" transform="matrix(9.962799,0,0,-9.9626,24.196183,40.983)"/>
<use data-text="0" xlink:href="#font_1_1" transform="matrix(9.962799,0,0,-9.9626,35.81842,40.983)"/>
<use data-text="0" xlink:href="#font_1_1" transform="matrix(9.962799,0,0,-9.9626,47.440645,40.983)"/>
<use data-text="1" xlink:href="#font_1_2" transform="matrix(9.962799,0,0,-9.9626,59.06389,40.983)"/>
<use data-text="&#x2217;" xlink:href="#font_2_1" transform="matrix(9.962799,0,0,-9.9626,70.68611,40.983)"/>
<use data-text="&#x2217;" xlink:href="#font_2_1" transform="matrix(9.962799,0,0,-9.9626,82.30835,40.983)"/>
<use data-text="0" xlink:href="#font_1_1" transform="matrix(9.962799,0,0,-9.9626,12.572952,54.045)"/>
<use data-text="0" xlink:href="#font_1_1" transform="matrix(9.962799,0,0,-9.9626,24.196183,54.045)"/>
<use data-text="0" xlink:href="#font_1_1" transform="matrix(9.962799,0,0,-9.9626,35.81842,54.045)"/>
<use data-text="0" xlink:href="#font_1_1" transform="matrix(9.962799,0,0,-9.9626,47.440645,54.045)"/>
<use data-text="0" xlink:href="#font_1_1" transform="matrix(9.962799,0,0,-9.9626,59.06389,54.045)"/>
<use data-text="0" xlink:href="#font_1_1" transform="matrix(9.962799,0,0,-9.9626,70.68611,54.045)"/>
<use data-text="1" xlink:href="#font_1_2" transform="matrix(9.962799,0,0,-9.9626,82.30835,54.045)"/>
<use data-text="0" xlink:href="#font_1_1" transform="matrix(9.962799,0,0,-9.9626,12.572952,67.106)"/>
<use data-text="0" xlink:href="#font_1_1" transform="matrix(9.962799,0,0,-9.9626,24.196183,67.106)"/>
<use data-text="0" xlink:href="#font_1_1" transform="matrix(9.962799,0,0,-9.9626,35.81842,67.106)"/>
<use data-text="0" xlink:href="#font_1_1" transform="matrix(9.962799,0,0,-9.9626,47.440645,67.106)"/>
<use data-text="0" xlink:href="#font_1_1" transform="matrix(9.962799,0,0,-9.9626,59.06389,67.106)"/>
<use data-text="0" xlink:href="#font_1_1" transform="matrix(9.962799,0,0,-9.9626,70.68611,67.106)"/>
<use data-text="0" xlink:href="#font_1_1" transform="matrix(9.962799,0,0,-9.9626,82.30835,67.106)"/>
<use data-text="&#xf8ee;" xlink:href="#font_3_1" transform="matrix(9.962799,0,0,-9.9626,-2.1043244,2.3060017)"/>
<use data-text="&#xf8ef;" xlink:href="#font_3_5" transform="matrix(9.962799,0,0,-9.9626,-2.1043244,19.841002)"/>
<use data-text="&#xf8ef;" xlink:href="#font_3_5" transform="matrix(9.962799,0,0,-9.9626,-2.1043244,25.818)"/>
<use data-text="&#xf8ef;" xlink:href="#font_3_5" transform="matrix(9.962799,0,0,-9.9626,-2.1043244,31.796002)"/>
<use data-text="&#xf8ef;" xlink:href="#font_3_5" transform="matrix(9.962799,0,0,-9.9626,-2.1043244,37.774003)"/>
<use data-text="&#xf8ef;" xlink:href="#font_3_5" transform="matrix(9.962799,0,0,-9.9626,-2.1043244,43.751005)"/>
<use data-text="&#xf8ef;" xlink:href="#font_3_5" transform="matrix(9.962799,0,0,-9.9626,-2.1043244,49.729005)"/>
<use data-text="&#xf8f0;" xlink:href="#font_3_3" transform="matrix(9.962799,0,0,-9.9626,-2.1043244,56.105005)"/>
<use data-text="&#xf8f9;" xlink:href="#font_3_2" transform="matrix(9.962799,0,0,-9.9626,95.32863,2.3060017)"/>
<use data-text="&#xf8fa;" xlink:href="#font_3_6" transform="matrix(9.962799,0,0,-9.9626,95.32863,19.841002)"/>
<use data-text="&#xf8fa;" xlink:href="#font_3_6" transform="matrix(9.962799,0,0,-9.9626,95.32863,25.818)"/>
<use data-text="&#xf8fa;" xlink:href="#font_3_6" transform="matrix(9.962799,0,0,-9.9626,95.32863,31.796002)"/>
<use data-text="&#xf8fa;" xlink:href="#font_3_6" transform="matrix(9.962799,0,0,-9.9626,95.32863,37.774003)"/>
<use data-text="&#xf8fa;" xlink:href="#font_3_6" transform="matrix(9.962799,0,0,-9.9626,95.32863,43.751005)"/>
<use data-text="&#xf8fa;" xlink:href="#font_3_6" transform="matrix(9.962799,0,0,-9.9626,95.32863,49.729005)"/>
<use data-text="&#xf8fb;" xlink:href="#font_3_4" transform="matrix(9.962799,0,0,-9.9626,95.32863,56.105005)"/>
<path transform="matrix(1.00002,0,0,-1,49.93271,37.773004)" stroke-width=".3985" stroke-linecap="butt" stroke-miterlimit="10" stroke-linejoin="miter" fill="none" stroke="#000000" d="M-29.25554 32.85316V19.3931H-6.0105V6.33153H5.612V-6.73003H28.85704V-19.7916H40.87807"/>
</svg>
