<svg xmlns="http://www.w3.org/2000/svg" xmlns:xlink="http://www.w3.org/1999/xlink" version="1.1" width="359pt" height="217pt" viewBox="0 0 359 217">
<defs>
<path id="font_1_2" d="M.6279907 .5686035C.6769867 .64660647 .71899417 .6496124 .7559967 .6516113 .7679901 .65260317 .7689972 .6696167 .7689972 .6706085 .7689972 .6786041 .7639923 .6826172 .7559967 .6826172 .7299957 .6826172 .70098879 .6796112 .673996 .6796112 .6409912 .6796112 .6069946 .6826172 .57499697 .6826172 .56900027 .6826172 .55599978 .6826172 .55599978 .66360476 .55599978 .65260317 .5649872 .6516113 .57199099 .6516113 .598999 .6496124 .6179962 .63960269 .6179962 .61860659 .6179962 .6036072 .6029968 .581604 .6029968 .5805969L.29599 .092544559 .22799683 .62161257C.22799683 .63861086 .25099183 .6516113 .29699708 .6516113 .31098939 .6516113 .32199098 .6516113 .32199098 .6716156 .32199098 .680603 .31399537 .6826172 .30799867 .6826172 .2679901 .6826172 .22499085 .6796112 .18399048 .6796112 .1659851 .6796112 .14698792 .680603 .1289978 .680603 .11099243 .680603 .09199524 .6826172 .07499695 .6826172 .067993167 .6826172 .055999757 .6826172 .055999757 .66360476 .055999757 .6516113 .06498718 .6516113 .08099365 .6516113 .13699341 .6516113 .13798523 .64260867 .14099121 .6175995L.21998596 .0005340576C.22299195-.019470215 .22698975-.022460938 .23999024-.022460938 .2559967-.022460938 .2599945-.017471314 .2679901-.004470825L.6279907 .5686035Z"/>
<path id="font_1_3" d="M.9169922 .5666046C.94200137 .61061099 .96598818 .64660647 1.0289917 .6516113 1.0379944 .65260317 1.0479889 .65260317 1.0479889 .6716156 1.0479889 .6756134 1.0439911 .6826172 1.0359955 .6826172 1.0119934 .6826172 .98399356 .6796112 .95899966 .6796112 .9249878 .6796112 .8880005 .6826172 .8549957 .6826172 .848999 .6826172 .83599856 .6826172 .83599856 .66360476 .83599856 .65260317 .8450012 .6516113 .8509979 .6516113 .875 .65060427 .9099884 .64260867 .9099884 .61260989 .9099884 .6016083 .9049988 .5935974 .8969879 .5796051L.6269989 .108551029 .58999636 .604599C.58898928 .6246033 .58699038 .65060427 .6599884 .6516113 .6769867 .6516113 .68699648 .6516113 .68699648 .6716156 .68699648 .6816101 .6759949 .6826172 .6719971 .6826172 .6319885 .6826172 .58999636 .6796112 .5499878 .6796112 .5269928 .6796112 .46798707 .6826172 .44499208 .6826172 .43899537 .6826172 .42599488 .6826172 .42599488 .6626129 .42599488 .6516113 .43598939 .6516113 .44999696 .6516113 .49398805 .6516113 .5009918 .6456146 .5029907 .6266022L.5089874 .54959109 .2559967 .108551029 .21798706 .6156006C.21798706 .62760928 .21798706 .65060427 .2939911 .6516113 .3039856 .6516113 .31498719 .6516113 .31498719 .6716156 .31498719 .6826172 .30299378 .6826172 .30099488 .6826172 .26098634 .6826172 .21899414 .6796112 .17799378 .6796112 .14299011 .6796112 .10699463 .6826172 .07299805 .6826172 .067993167 .6826172 .054992677 .6826172 .054992677 .66360476 .054992677 .6516113 .06399536 .6516113 .07998657 .6516113 .12998963 .6516113 .1309967 .64260867 .1329956 .61460879L.17799378 .0035247803C.1789856-.014465332 .17999268-.022460938 .19400025-.022460938 .20599365-.022460938 .20899964-.016464234 .21798706-.0014648438L.5119934 .5085907 .548996 .0035247803C.5509949-.017471314 .5529938-.022460938 .5649872-.022460938 .5779877-.022460938 .58399966-.012466431 .58898928-.0034637452L.9169922 .5666046Z"/>
<path id="font_1_1" d="M.4269867 .6066284C.43399049 .63461306 .43798829 .64060977 .44999696 .6436157 .45899964 .6456146 .49198915 .6456146 .5130005 .6456146 .6139984 .6456146 .6589966 .6416168 .6589966 .56365969 .6589966 .54867556 .6549988 .50968936 .651001 .4837036 .6499939 .4797058 .647995 .4677124 .647995 .46472169 .647995 .45872499 .651001 .45173646 .6599884 .45173646 .67099 .45173646 .6729889 .45973207 .6749878 .4747162L.70199587 .64860537C.7029877 .65260317 .70399478 .6626129 .70399478 .66560366 .70399478 .6766052 .69400027 .6766052 .6769867 .6766052H.12199402C.09799194 .6766052 .09700012 .6756134 .08999634 .6566162L.02999878 .4807129C.0289917 .478714 .023986817 .46472169 .023986817 .46272279 .023986817 .45672608 .0289917 .45173646 .035995485 .45173646 .04598999 .45173646 .04699707 .45672608 .052993776 .4727173 .10699463 .6276245 .1329956 .6456146 .2809906 .6456146H.31999208C.34799195 .6456146 .34799195 .6416168 .34799195 .6336212 .34799195 .6276245 .34498597 .6156311 .34399415 .6126251L.20999146 .07896423C.20098877 .041992189 .19799805 .0309906 .09098816 .0309906 .054992677 .0309906 .04899597 .0309906 .04899597 .011993408 .04899597 0 .05999756 0 .06599426 0 .09298706 0 .12098694 .0019989014 .147995 .0019989014 .17599488 .0019989014 .20498657 .0029907227 .23298645 .0029907227 .26098634 .0029907227 .2889862 .0019989014 .31599427 .0019989014 .34498597 .0019989014 .375 0 .40299989 0 .41299439 0 .4249878 0 .4249878 .019989014 .4249878 .0309906 .4169922 .0309906 .3909912 .0309906 .3659973 .0309906 .35299684 .0309906 .32699586 .032989503 .2979889 .035995485 .2899933 .038986207 .2899933 .054977418 .2899933 .05596924 .2899933 .06097412 .2939911 .07595825L.4269867 .6066284Z"/>
<path id="font_2_1" d="M.5059967 .37631227C.5119934 .39031983 .5159912 .3973236 .5799866 .3973236V.44433595C.5549927 .44232179 .526001 .44132997 .5009918 .44132997 .47599793 .44132997 .43099977 .44332887 .4099884 .44433595V.3973236C.42900086 .3973236 .45799256 .3943329 .45799256 .38632203 .45799256 .3853302 .45700074 .38331605 .45298768 .37431336L.33699037 .12416077 .20999146 .3973236H.2639923V.44433595C.23098755 .44232179 .14099121 .44132997 .13999939 .44132997 .11199951 .44132997 .066986087 .44332887 .025985718 .44433595V.3973236H.08999634L.2649994 .021087647C.2769928-.00390625 .2899933-.00390625 .30299378-.00390625 .31999208-.00390625 .32998658-.00091552737 .33999635 .020080567L.5059967 .37631227Z"/>
<path id="font_3_1" d="M.33499146 .63612368C.33499146 .6630554 .33299256 .6640625 .30499269 .6640625 .24099732 .6014404 .1499939 .6004486 .10899353 .6004486V.5644531C.1329956 .5644531 .19898987 .5644531 .2539978 .592453V.08203125C.2539978 .04899597 .2539978 .035995485 .1539917 .035995485H.115997318V0C.13398743 .0009918213 .25698854 .0039978029 .2939911 .0039978029 .32499696 .0039978029 .45098878 .0009918213 .47299195 0V.035995485H.43499757C.33499146 .035995485 .33499146 .04899597 .33499146 .08203125V.63612368Z"/>
<path id="font_3_2" d="M.5049896 .18203736H.47099305C.46798707 .16001892 .45799256 .100997928 .44499208 .09098816 .43699647 .084991458 .3600006 .084991458 .34599305 .084991458H.1619873C.2669983 .17803955 .3019867 .20603943 .3619995 .25306703 .43598939 .312088 .5049896 .374115 .5049896 .46914674 .5049896 .5900879 .39898683 .6640625 .2709961 .6640625 .14698792 .6640625 .06298828 .57710269 .06298828 .4851532 .06298828 .43414308 .10598755 .42915345 .115997318 .42915345 .13999939 .42915345 .16899109 .44615174 .16899109 .48214723 .16899109 .5001526 .1619873 .53515627 .10998535 .53515627 .14099121 .6060791 .20899964 .62805178 .2559967 .62805178 .35598756 .62805178 .4079895 .5501404 .4079895 .46914674 .4079895 .38212586 .34599305 .3130951 .31399537 .27708436L.07299805 .038986207C.06298828 .02999878 .06298828 .027999878 .06298828 0H.47499085L.5049896 .18203736Z"/>
<path id="font_4_3" d="M.40899659 .23046875H.6879883C.70199587 .23046875 .72099307 .23046875 .72099307 .25045777 .72099307 .27046205 .70199587 .27046205 .6879883 .27046205H.40899659V.5500183C.40899659 .56399539 .40899659 .5830078 .3889923 .5830078 .36898805 .5830078 .36898805 .56399539 .36898805 .5500183V.27046205H.08898926C.07499695 .27046205 .055999757 .27046205 .055999757 .25045777 .055999757 .23046875 .07499695 .23046875 .08898926 .23046875H.36898805V-.05000305C.36898805-.06401062 .36898805-.08300781 .3889923-.08300781 .40899659-.08300781 .40899659-.06401062 .40899659-.05000305V.23046875Z"/>
<path id="font_4_1" d="M.33099366-.2400055C.33099366-.23701477 .33099366-.23500061 .31399537-.21800232 .18899536-.0920105 .15699768 .09700012 .15699768 .25 .15699768 .42399598 .19499207 .59799197 .31799317 .72299197 .33099366 .73498538 .33099366 .7369995 .33099366 .73999026 .33099366 .746994 .32699586 .75 .32099916 .75 .31098939 .75 .22099304 .6819916 .1619873 .5549927 .11099243 .44499208 .09899902 .33399964 .09899902 .25 .09899902 .17199707 .10998535 .050994874 .16499329-.06201172 .22499085-.18501282 .31098939-.25 .32099916-.25 .32699586-.25 .33099366-.24700928 .33099366-.2400055Z"/>
<path id="font_4_2" d="M.2889862 .25C.2889862 .32798768 .27799989 .44898988 .22299195 .56199648 .16299439 .68499758 .07699585 .75 .066986087 .75 .06098938 .75 .056991579 .74598696 .056991579 .73999026 .056991579 .7369995 .056991579 .73498538 .07598877 .71699526 .17399597 .6179962 .23098755 .45899964 .23098755 .25 .23098755 .07899475 .19400025-.09700012 .069992069-.2230072 .056991579-.23500061 .056991579-.23701477 .056991579-.2400055 .056991579-.2460022 .06098938-.25 .066986087-.25 .07699585-.25 .16699219-.18200684 .22599793-.055007936 .2769928 .054992677 .2889862 .16600037 .2889862 .25Z"/>
</defs>
<path transform="matrix(1.00002,0,0,-1.00002,64.668,125.17227)" stroke-width=".79701" stroke-linecap="butt" stroke-miterlimit="10" stroke-linejoin="miter" fill="none" stroke="#000000" d="M63.0008 0C63.0008 49.7069 34.79482 90.00114 0 90.00114-34.79482 90.00114-63.0008 49.7069-63.0008 0-63.0008-49.7069-34.79482-90.00114 0-90.00114 34.79482-90.00114 63.0008-49.7069 63.0008 0ZM0 0"/>
<use data-text="V" xlink:href="#font_1_2" transform="matrix(9.962799,0,0,-9.962799,1.2157288,69.74816)"/>
<path transform="matrix(1.00002,0,0,-1.00002,64.668,125.17227)" stroke-width=".79701" stroke-linecap="butt" stroke-miterlimit="10" stroke-linejoin="miter" fill="none" stroke="#000000" d="M289.77528 0C289.77528 49.7069 261.56929 90.00114 226.77448 90.00114 191.97965 90.00114 163.77367 49.7069 163.77367 0 163.77367-49.7069 191.97965-90.00114 226.77448-90.00114 261.56929-90.00114 289.77528-49.7069 289.77528 0ZM226.77448 0"/>
<use data-text="W" xlink:href="#font_1_3" transform="matrix(9.962799,0,0,-9.962799,346.87367,69.74816)"/>
<path transform="matrix(1.00002,0,0,-1.00002,64.668,125.17227)" stroke-width=".3985" stroke-linecap="butt" stroke-miterlimit="10" stroke-linejoin="miter" fill="none" stroke="#000000" d="M34.01608 90.7097C87.62743 121.66212 139.14704 121.66212 192.41327 90.90894"/>
<path transform="matrix(.86602738,.49999003,.49999003,-.86602738,257.2577,34.361146)" stroke-width=".3985" stroke-linecap="round" stroke-linejoin="round" fill="none" stroke="#000000" d="M-2.07224 2.39104C-1.69365 .95639-.84999 .27895 0 0-.84999-.27895-1.69365-.95639-2.07224-2.39104"/>
<use data-text="T" xlink:href="#font_1_1" transform="matrix(9.962799,0,0,-9.962799,174.4542,7.7259218)"/>
<path transform="matrix(1.00002,0,0,-1.00002,64.668,125.17227)" stroke-width=".3985" stroke-linecap="butt" stroke-miterlimit="10" stroke-linejoin="miter" fill="none" stroke="#000000" d=""/>
<use data-text="v" xlink:href="#font_2_1" transform="matrix(9.962799,0,0,-9.962799,59.409898,77.637317)"/>
<use data-text="1" xlink:href="#font_3_1" transform="matrix(6.97394,0,0,-6.97394,65.457019,79.13135)"/>
<path transform="matrix(1.00002,0,0,-1.00002,64.668,125.17227)" stroke-width=".3985" stroke-linecap="butt" stroke-miterlimit="10" stroke-linejoin="miter" fill="none" stroke="#000000" d=""/>
<use data-text="v" xlink:href="#font_2_1" transform="matrix(9.962799,0,0,-9.962799,59.409898,155.59189)"/>
<use data-text="2" xlink:href="#font_3_2" transform="matrix(6.97394,0,0,-6.97394,65.457019,157.0859)"/>
<path transform="matrix(1.00002,0,0,-1.00002,64.668,125.17227)" stroke-width=".3985" stroke-linecap="butt" stroke-miterlimit="10" stroke-linejoin="miter" fill="none" stroke="#000000" d=""/>
<use data-text="v" xlink:href="#font_2_1" transform="matrix(9.962799,0,0,-9.962799,12.628952,105.98389)"/>
<use data-text="1" xlink:href="#font_3_1" transform="matrix(6.97394,0,0,-6.97394,18.676072,107.47792)"/>
<use data-text="+" xlink:href="#font_4_3" transform="matrix(9.962799,0,0,-9.962799,25.359208,105.98389)"/>
<use data-text="v" xlink:href="#font_2_1" transform="matrix(9.962799,0,0,-9.962799,35.322404,105.98389)"/>
<use data-text="2" xlink:href="#font_3_2" transform="matrix(6.97394,0,0,-6.97394,41.369524,107.47792)"/>
<path transform="matrix(1.00002,0,0,-1.00002,64.668,125.17227)" stroke-width=".3985" stroke-linecap="butt" stroke-miterlimit="10" stroke-linejoin="miter" fill="none" stroke="#000000" d=""/>
<use data-text="T" xlink:href="#font_1_1" transform="matrix(9.962799,0,0,-9.962799,278.7113,55.379877)"/>
<use data-text="(" xlink:href="#font_4_1" transform="matrix(9.962799,0,0,-9.962799,285.91743,55.379877)"/>
<use data-text="v" xlink:href="#font_2_1" transform="matrix(9.962799,0,0,-9.962799,289.7915,55.379877)"/>
<use data-text="1" xlink:href="#font_3_1" transform="matrix(6.97394,0,0,-6.97394,295.83863,56.87391)"/>
<use data-text=")" xlink:href="#font_4_2" transform="matrix(9.962799,0,0,-9.962799,300.3077,55.379877)"/>
<path transform="matrix(1.00002,0,0,-1.00002,64.668,125.17227)" stroke-width=".3985" stroke-linecap="butt" stroke-miterlimit="10" stroke-linejoin="miter" fill="none" stroke="#000000" d=""/>
<use data-text="T" xlink:href="#font_1_1" transform="matrix(9.962799,0,0,-9.962799,307.05885,175.8563)"/>
<use data-text="(" xlink:href="#font_4_1" transform="matrix(9.962799,0,0,-9.962799,314.265,175.8563)"/>
<use data-text="v" xlink:href="#font_2_1" transform="matrix(9.962799,0,0,-9.962799,318.13908,175.8563)"/>
<use data-text="2" xlink:href="#font_3_2" transform="matrix(6.97394,0,0,-6.97394,324.1862,177.35031)"/>
<use data-text=")" xlink:href="#font_4_2" transform="matrix(9.962799,0,0,-9.962799,328.65528,175.8563)"/>
<path transform="matrix(1.00002,0,0,-1.00002,64.668,125.17227)" stroke-width=".3985" stroke-linecap="butt" stroke-miterlimit="10" stroke-linejoin="miter" fill="none" stroke="#000000" d=""/>
<use data-text="T" xlink:href="#font_1_1" transform="matrix(9.962799,0,0,-9.962799,274.4512,97.90073)"/>
<use data-text="(" xlink:href="#font_4_1" transform="matrix(9.962799,0,0,-9.962799,281.65736,97.90073)"/>
<use data-text="v" xlink:href="#font_2_1" transform="matrix(9.962799,0,0,-9.962799,285.53144,97.90073)"/>
<use data-text="1" xlink:href="#font_3_1" transform="matrix(6.97394,0,0,-6.97394,291.57856,99.39476)"/>
<use data-text="+" xlink:href="#font_4_3" transform="matrix(9.962799,0,0,-9.962799,298.26167,97.90073)"/>
<use data-text="v" xlink:href="#font_2_1" transform="matrix(9.962799,0,0,-9.962799,308.22486,97.90073)"/>
<use data-text="2" xlink:href="#font_3_2" transform="matrix(6.97394,0,0,-6.97394,314.27198,99.39476)"/>
<use data-text=")" xlink:href="#font_4_2" transform="matrix(9.962799,0,0,-9.962799,318.7411,97.90073)"/>
<path transform="matrix(1.00002,0,0,-1.00002,64.668,125.17227)" stroke-width=".3985" stroke-linecap="butt" stroke-miterlimit="10" stroke-linejoin="miter" fill="none" stroke="#000000" d=""/>
<use data-text="T" xlink:href="#font_1_1" transform="matrix(9.962799,0,0,-9.962799,245.71364,133.33544)"/>
<use data-text="(" xlink:href="#font_4_1" transform="matrix(9.962799,0,0,-9.962799,252.91979,133.33544)"/>
<use data-text="v" xlink:href="#font_2_1" transform="matrix(9.962799,0,0,-9.962799,256.79386,133.33544)"/>
<use data-text="1" xlink:href="#font_3_1" transform="matrix(6.97394,0,0,-6.97394,262.84098,134.82947)"/>
<use data-text=")" xlink:href="#font_4_2" transform="matrix(9.962799,0,0,-9.962799,267.31007,133.33544)"/>
<use data-text="+" xlink:href="#font_4_3" transform="matrix(9.962799,0,0,-9.962799,273.3874,133.33544)"/>
<use data-text="T" xlink:href="#font_1_1" transform="matrix(9.962799,0,0,-9.962799,283.3614,133.33544)"/>
<use data-text="(" xlink:href="#font_4_1" transform="matrix(9.962799,0,0,-9.962799,290.5675,133.33544)"/>
<use data-text="v" xlink:href="#font_2_1" transform="matrix(9.962799,0,0,-9.962799,294.4416,133.33544)"/>
<use data-text="2" xlink:href="#font_3_2" transform="matrix(6.97394,0,0,-6.97394,300.4887,134.82947)"/>
<use data-text=")" xlink:href="#font_4_2" transform="matrix(9.962799,0,0,-9.962799,304.95777,133.33544)"/>
<path transform="matrix(1.00002,0,0,-1.00002,64.668,125.17227)" d="M2.24162 42.5202C2.24162 43.75822 1.238 44.76183 0 44.76183-1.238 44.76183-2.24162 43.75822-2.24162 42.5202-2.24162 41.28218-1.238 40.27858 0 40.27858 1.238 40.27858 2.24162 41.28218 2.24162 42.5202ZM0 42.5202"/>
<path transform="matrix(1.00002,0,0,-1.00002,64.668,125.17227)" d="M2.24162-35.43349C2.24162-34.19548 1.238-33.19186 0-33.19186-1.238-33.19186-2.24162-34.19548-2.24162-35.43349-2.24162-36.67151-1.238-37.67511 0-37.67511 1.238-37.67511 2.24162-36.67151 2.24162-35.43349ZM0-35.43349"/>
<path transform="matrix(1.00002,0,0,-1.00002,64.668,125.17227)" d="M-33.19186 14.17339C-33.19186 15.4114-34.19548 16.41501-35.43349 16.41501-36.67151 16.41501-37.67511 15.4114-37.67511 14.17339-37.67511 12.93536-36.67151 11.93176-35.43349 11.93176-34.19548 11.93176-33.19186 12.93536-33.19186 14.17339ZM-35.43349 14.17339"/>
<path transform="matrix(1.00002,0,0,-1.00002,64.668,125.17227)" d="M229.0161 63.7803C229.0161 65.01833 228.0125 66.02193 226.77448 66.02193 225.53646 66.02193 224.53285 65.01833 224.53285 63.7803 224.53285 62.54228 225.53646 61.53868 226.77448 61.53868 228.0125 61.53868 229.0161 62.54228 229.0161 63.7803ZM226.77448 63.7803"/>
<path transform="matrix(1.00002,0,0,-1.00002,64.668,125.17227)" d="M257.3629-56.69362C257.3629-55.4556 256.3593-54.452 255.12128-54.452 253.88326-54.452 252.87966-55.4556 252.87966-56.69362 252.87966-57.93163 253.88326-58.93524 255.12128-58.93524 256.3593-58.93524 257.3629-57.93163 257.3629-56.69362ZM255.12128-56.69362"/>
<path transform="matrix(1.00002,0,0,-1.00002,64.668,125.17227)" d="M236.10279 21.2601C236.10279 22.49811 235.09918 23.50172 233.86116 23.50172 232.62314 23.50172 231.61954 22.49811 231.61954 21.2601 231.61954 20.02208 232.62314 19.01848 233.86116 19.01848 235.09918 19.01848 236.10279 20.02208 236.10279 21.2601ZM233.86116 21.2601"/>
<path transform="matrix(1.00002,0,0,-1.00002,64.668,125.17227)" d="M214.84268-14.17339C214.84268-12.93536 213.83908-11.93176 212.60106-11.93176 211.36304-11.93176 210.35944-12.93536 210.35944-14.17339 210.35944-15.4114 211.36304-16.41501 212.60106-16.41501 213.83908-16.41501 214.84268-15.4114 214.84268-14.17339ZM212.60106-14.17339"/>
<path transform="matrix(1.00002,0,0,-1.00002,64.668,125.17227)" stroke-width=".3985" stroke-linecap="butt" stroke-miterlimit="10" stroke-linejoin="miter" fill="none" stroke="#000000" d="M3.81737 42.87752 222.85791 63.41423"/>
<path transform="matrix(-.99559,.09332187,.09332187,.99559,68.38626,82.30318)" stroke-width=".3985" stroke-linecap="butt" stroke-miterlimit="10" stroke-linejoin="miter" fill="none" stroke="#000000" d="M0 2.29141V-2.29141"/>
<path transform="matrix(.99559,-.09332187,-.09332187,-.99559,287.72877,61.738183)" stroke-width=".3985" stroke-linecap="round" stroke-linejoin="round" fill="none" stroke="#000000" d="M-2.07224 2.39104C-1.69365 .95639-.84999 .27895 0 0-.84999-.27895-1.69365-.95639-2.07224-2.39104"/>
<path transform="matrix(1.00002,0,0,-1.00002,64.668,125.17227)" stroke-width=".3985" stroke-linecap="butt" stroke-miterlimit="10" stroke-linejoin="miter" fill="none" stroke="#000000" d="M3.81764-35.751 251.20436-56.36832"/>
<path transform="matrix(-.99650999,-.08304166,-.08304166,.99650999,68.386447,160.91573)" stroke-width=".3985" stroke-linecap="butt" stroke-miterlimit="10" stroke-linejoin="miter" fill="none" stroke="#000000" d="M0 2.29141V-2.29141"/>
<path transform="matrix(.99650999,.08304166,.08304166,-.99650999,316.07594,181.55825)" stroke-width=".3985" stroke-linecap="round" stroke-linejoin="round" fill="none" stroke="#000000" d="M-2.07224 2.39104C-1.69365 .95639-.84999 .27895 0 0-.84999-.27895-1.69365-.95639-2.07224-2.39104"/>
<path transform="matrix(1.00002,0,0,-1.00002,64.668,125.17227)" stroke-width=".3985" stroke-linecap="butt" stroke-miterlimit="10" stroke-linejoin="miter" fill="none" stroke="#000000" d="M-31.61493 14.27362 229.94301 21.1572"/>
<path transform="matrix(-.99962,.026300528,.026300528,.99962,32.952867,110.900989)" stroke-width=".3985" stroke-linecap="butt" stroke-miterlimit="10" stroke-linejoin="miter" fill="none" stroke="#000000" d="M0 2.29141V-2.29141"/>
<path transform="matrix(.99962,-.026300528,-.026300528,-.99962,294.81477,104.009418)" stroke-width=".3985" stroke-linecap="round" stroke-linejoin="round" fill="none" stroke="#000000" d="M-2.07224 2.39104C-1.69365 .95639-.84999 .27895 0 0-.84999-.27895-1.69365-.95639-2.07224-2.39104"/>
</svg>
