<svg xmlns="http://www.w3.org/2000/svg" xmlns:xlink="http://www.w3.org/1999/xlink" version="1.1" width="359pt" height="217pt" viewBox="0 0 359 217">
<defs>
<path id="font_1_2" d="M.6279907 .5686035C.6769867 .64660647 .71899417 .6496124 .7559967 .6516113 .7679901 .65260317 .7689972 .6696167 .7689972 .6706085 .7689972 .6786041 .7639923 .6826172 .7559967 .6826172 .7299957 .6826172 .70098879 .6796112 .673996 .6796112 .6409912 .6796112 .6069946 .6826172 .57499697 .6826172 .56900027 .6826172 .55599978 .6826172 .55599978 .66360476 .55599978 .65260317 .5649872 .6516113 .57199099 .6516113 .598999 .6496124 .6179962 .63960269 .6179962 .61860659 .6179962 .6036072 .6029968 .581604 .6029968 .5805969L.29599 .092544559 .22799683 .62161257C.22799683 .63861086 .25099183 .6516113 .29699708 .6516113 .31098939 .6516113 .32199098 .6516113 .32199098 .6716156 .32199098 .680603 .31399537 .6826172 .30799867 .6826172 .2679901 .6826172 .22499085 .6796112 .18399048 .6796112 .1659851 .6796112 .14698792 .680603 .1289978 .680603 .11099243 .680603 .09199524 .6826172 .07499695 .6826172 .067993167 .6826172 .055999757 .6826172 .055999757 .66360476 .055999757 .6516113 .06498718 .6516113 .08099365 .6516113 .13699341 .6516113 .13798523 .64260867 .14099121 .6175995L.21998596 .0005340576C.22299195-.019470215 .22698975-.022460938 .23999024-.022460938 .2559967-.022460938 .2599945-.017471314 .2679901-.004470825L.6279907 .5686035Z"/>
<path id="font_1_3" d="M.9169922 .5666046C.94200137 .61061099 .96598818 .64660647 1.0289917 .6516113 1.0379944 .65260317 1.0479889 .65260317 1.0479889 .6716156 1.0479889 .6756134 1.0439911 .6826172 1.0359955 .6826172 1.0119934 .6826172 .98399356 .6796112 .95899966 .6796112 .9249878 .6796112 .8880005 .6826172 .8549957 .6826172 .848999 .6826172 .83599856 .6826172 .83599856 .66360476 .83599856 .65260317 .8450012 .6516113 .8509979 .6516113 .875 .65060427 .9099884 .64260867 .9099884 .61260989 .9099884 .6016083 .9049988 .5935974 .8969879 .5796051L.6269989 .108551029 .58999636 .604599C.58898928 .6246033 .58699038 .65060427 .6599884 .6516113 .6769867 .6516113 .68699648 .6516113 .68699648 .6716156 .68699648 .6816101 .6759949 .6826172 .6719971 .6826172 .6319885 .6826172 .58999636 .6796112 .5499878 .6796112 .5269928 .6796112 .46798707 .6826172 .44499208 .6826172 .43899537 .6826172 .42599488 .6826172 .42599488 .6626129 .42599488 .6516113 .43598939 .6516113 .44999696 .6516113 .49398805 .6516113 .5009918 .6456146 .5029907 .6266022L.5089874 .54959109 .2559967 .108551029 .21798706 .6156006C.21798706 .62760928 .21798706 .65060427 .2939911 .6516113 .3039856 .6516113 .31498719 .6516113 .31498719 .6716156 .31498719 .6826172 .30299378 .6826172 .30099488 .6826172 .26098634 .6826172 .21899414 .6796112 .17799378 .6796112 .14299011 .6796112 .10699463 .6826172 .07299805 .6826172 .067993167 .6826172 .054992677 .6826172 .054992677 .66360476 .054992677 .6516113 .06399536 .6516113 .07998657 .6516113 .12998963 .6516113 .1309967 .64260867 .1329956 .61460879L.17799378 .0035247803C.1789856-.014465332 .17999268-.022460938 .19400025-.022460938 .20599365-.022460938 .20899964-.016464234 .21798706-.0014648438L.5119934 .5085907 .548996 .0035247803C.5509949-.017471314 .5529938-.022460938 .5649872-.022460938 .5779877-.022460938 .58399966-.012466431 .58898928-.0034637452L.9169922 .5666046Z"/>
<path id="font_1_1" d="M.4269867 .6066284C.43399049 .63461306 .43798829 .64060977 .44999696 .6436157 .45899964 .6456146 .49198915 .6456146 .5130005 .6456146 .6139984 .6456146 .6589966 .6416168 .6589966 .56365969 .6589966 .54867556 .6549988 .50968936 .651001 .4837036 .6499939 .4797058 .647995 .4677124 .647995 .46472169 .647995 .45872499 .651001 .45173646 .6599884 .45173646 .67099 .45173646 .6729889 .45973207 .6749878 .4747162L.70199587 .64860537C.7029877 .65260317 .70399478 .6626129 .70399478 .66560366 .70399478 .6766052 .69400027 .6766052 .6769867 .6766052H.12199402C.09799194 .6766052 .09700012 .6756134 .08999634 .6566162L.02999878 .4807129C.0289917 .478714 .023986817 .46472169 .023986817 .46272279 .023986817 .45672608 .0289917 .45173646 .035995485 .45173646 .04598999 .45173646 .04699707 .45672608 .052993776 .4727173 .10699463 .6276245 .1329956 .6456146 .2809906 .6456146H.31999208C.34799195 .6456146 .34799195 .6416168 .34799195 .6336212 .34799195 .6276245 .34498597 .6156311 .34399415 .6126251L.20999146 .07896423C.20098877 .041992189 .19799805 .0309906 .09098816 .0309906 .054992677 .0309906 .04899597 .0309906 .04899597 .011993408 .04899597 0 .05999756 0 .06599426 0 .09298706 0 .12098694 .0019989014 .147995 .0019989014 .17599488 .0019989014 .20498657 .0029907227 .23298645 .0029907227 .26098634 .0029907227 .2889862 .0019989014 .31599427 .0019989014 .34498597 .0019989014 .375 0 .40299989 0 .41299439 0 .4249878 0 .4249878 .019989014 .4249878 .0309906 .4169922 .0309906 .3909912 .0309906 .3659973 .0309906 .35299684 .0309906 .32699586 .032989503 .2979889 .035995485 .2899933 .038986207 .2899933 .054977418 .2899933 .05596924 .2899933 .06097412 .2939911 .07595825L.4269867 .6066284Z"/>
<path id="font_2_1" d="M.5059967 .37631227C.5119934 .39031983 .5159912 .3973236 .5799866 .3973236V.44433595C.5549927 .44232179 .526001 .44132997 .5009918 .44132997 .47599793 .44132997 .43099977 .44332887 .4099884 .44433595V.3973236C.42900086 .3973236 .45799256 .3943329 .45799256 .38632203 .45799256 .3853302 .45700074 .38331605 .45298768 .37431336L.33699037 .12416077 .20999146 .3973236H.2639923V.44433595C.23098755 .44232179 .14099121 .44132997 .13999939 .44132997 .11199951 .44132997 .066986087 .44332887 .025985718 .44433595V.3973236H.08999634L.2649994 .021087647C.2769928-.00390625 .2899933-.00390625 .30299378-.00390625 .31999208-.00390625 .32998658-.00091552737 .33999635 .020080567L.5059967 .37631227Z"/>
<path id="font_1_4" d="M.3959961 .37998963C.37998963 .37998963 .3659973 .37998963 .35198976 .36598207 .33599855 .35098268 .33399964 .33398438 .33399964 .3269806 .33399964 .30297853 .35198976 .2919922 .37098695 .2919922 .3999939 .2919922 .4269867 .315979 .4269867 .35598756 .4269867 .40522767 .37998963 .4423828 .30899049 .4423828 .17399597 .4423828 .040985109 .2989807 .040985109 .15811157 .040985109 .06819153 .09899902-.0107421879 .20298767-.0107421879 .34599305-.0107421879 .42999269 .09516907 .42999269 .107162479 .42999269 .11315918 .42399598 .120147708 .41799928 .120147708 .41299439 .120147708 .41099549 .1181488 .40499879 .1101532 .32598878 .011245728 .21699524 .011245728 .20498657 .011245728 .14199829 .011245728 .114990238 .06021118 .114990238 .120147708 .114990238 .1611023 .1349945 .25801087 .16899109 .31999208 .19999695 .37698365 .25498963 .42037965 .30999757 .42037965 .34399415 .42037965 .38198854 .40724183 .3959961 .37998963Z"/>
<path id="font_3_1" d="M.33099366-.2400055C.33099366-.23701477 .33099366-.23500061 .31399537-.21800232 .18899536-.0920105 .15699768 .09700012 .15699768 .25 .15699768 .42399598 .19499207 .59799197 .31799317 .72299197 .33099366 .73498538 .33099366 .7369995 .33099366 .73999026 .33099366 .746994 .32699586 .75 .32099916 .75 .31098939 .75 .22099304 .6819916 .1619873 .5549927 .11099243 .44499208 .09899902 .33399964 .09899902 .25 .09899902 .17199707 .10998535 .050994874 .16499329-.06201172 .22499085-.18501282 .31098939-.25 .32099916-.25 .32699586-.25 .33099366-.24700928 .33099366-.2400055Z"/>
<path id="font_3_2" d="M.2889862 .25C.2889862 .32798768 .27799989 .44898988 .22299195 .56199648 .16299439 .68499758 .07699585 .75 .066986087 .75 .06098938 .75 .056991579 .74598696 .056991579 .73999026 .056991579 .7369995 .056991579 .73498538 .07598877 .71699526 .17399597 .6179962 .23098755 .45899964 .23098755 .25 .23098755 .07899475 .19400025-.09700012 .069992069-.2230072 .056991579-.23500061 .056991579-.23701477 .056991579-.2400055 .056991579-.2460022 .06098938-.25 .066986087-.25 .07699585-.25 .16699219-.18200684 .22599793-.055007936 .2769928 .054992677 .2889862 .16600037 .2889862 .25Z"/>
</defs>
<path transform="matrix(1.00002,0,0,-1.00002,64.668,125.17227)" stroke-width=".79701" stroke-linecap="butt" stroke-miterlimit="10" stroke-linejoin="miter" fill="none" stroke="#000000" d="M63.0008 0C63.0008 49.7069 34.79482 90.00114 0 90.00114-34.79482 90.00114-63.0008 49.7069-63.0008 0-63.0008-49.7069-34.79482-90.00114 0-90.00114 34.79482-90.00114 63.0008-49.7069 63.0008 0ZM0 0"/>
<use data-text="V" xlink:href="#font_1_2" transform="matrix(9.962799,0,0,-9.962799,1.2157288,69.74816)"/>
<path transform="matrix(1.00002,0,0,-1.00002,64.668,125.17227)" stroke-width=".79701" stroke-linecap="butt" stroke-miterlimit="10" stroke-linejoin="miter" fill="none" stroke="#000000" d="M289.77528 0C289.77528 49.7069 261.56929 90.00114 226.77448 90.00114 191.97965 90.00114 163.77367 49.7069 163.77367 0 163.77367-49.7069 191.97965-90.00114 226.77448-90.00114 261.56929-90.00114 289.77528-49.7069 289.77528 0ZM226.77448 0"/>
<use data-text="W" xlink:href="#font_1_3" transform="matrix(9.962799,0,0,-9.962799,346.87367,69.74816)"/>
<path transform="matrix(1.00002,0,0,-1.00002,64.668,125.17227)" stroke-width=".3985" stroke-linecap="butt" stroke-miterlimit="10" stroke-linejoin="miter" fill="none" stroke="#000000" d="M34.01608 90.7097C87.62743 121.66212 139.14704 121.66212 192.41327 90.90894"/>
<path transform="matrix(.86602738,.49999003,.49999003,-.86602738,257.2577,34.361146)" stroke-width=".3985" stroke-linecap="round" stroke-linejoin="round" fill="none" stroke="#000000" d="M-2.07224 2.39104C-1.69365 .95639-.84999 .27895 0 0-.84999-.27895-1.69365-.95639-2.07224-2.39104"/>
<use data-text="T" xlink:href="#font_1_1" transform="matrix(9.962799,0,0,-9.962799,174.4542,7.7259218)"/>
<path transform="matrix(1.00002,0,0,-1.00002,64.668,125.17227)" stroke-width=".3985" stroke-linecap="butt" stroke-miterlimit="10" stroke-linejoin="miter" fill="none" stroke="#000000" d=""/>
<use data-text="v" xlink:href="#font_2_1" transform="matrix(9.962799,0,0,-9.962799,61.564935,64.95807)"/>
<path transform="matrix(1.00002,0,0,-1.00002,64.668,125.17227)" stroke-width=".3985" stroke-linecap="butt" stroke-miterlimit="10" stroke-linejoin="miter" fill="none" stroke="#000000" d=""/>
<use data-text="c" xlink:href="#font_1_4" transform="matrix(9.962799,0,0,-9.962799,31.062333,149.99977)"/>
<use data-text="v" xlink:href="#font_2_1" transform="matrix(9.962799,0,0,-9.962799,35.37442,149.99977)"/>
<path transform="matrix(1.00002,0,0,-1.00002,64.668,125.17227)" stroke-width=".3985" stroke-linecap="butt" stroke-miterlimit="10" stroke-linejoin="miter" fill="none" stroke="#000000" d=""/>
<use data-text="T" xlink:href="#font_1_1" transform="matrix(9.962799,0,0,-9.962799,280.86634,55.379877)"/>
<use data-text="(" xlink:href="#font_3_1" transform="matrix(9.962799,0,0,-9.962799,288.07249,55.379877)"/>
<use data-text="v" xlink:href="#font_2_1" transform="matrix(9.962799,0,0,-9.962799,291.94654,55.379877)"/>
<use data-text=")" xlink:href="#font_3_2" transform="matrix(9.962799,0,0,-9.962799,298.15266,55.379877)"/>
<path transform="matrix(1.00002,0,0,-1.00002,64.668,125.17227)" stroke-width=".3985" stroke-linecap="butt" stroke-miterlimit="10" stroke-linejoin="miter" fill="none" stroke="#000000" d=""/>
<use data-text="T" xlink:href="#font_1_1" transform="matrix(9.962799,0,0,-9.962799,278.71028,175.8563)"/>
<use data-text="(" xlink:href="#font_3_1" transform="matrix(9.962799,0,0,-9.962799,285.91645,175.8563)"/>
<use data-text="c" xlink:href="#font_1_4" transform="matrix(9.962799,0,0,-9.962799,289.7905,175.8563)"/>
<use data-text="v" xlink:href="#font_2_1" transform="matrix(9.962799,0,0,-9.962799,294.1026,175.8563)"/>
<use data-text=")" xlink:href="#font_3_2" transform="matrix(9.962799,0,0,-9.962799,300.30873,175.8563)"/>
<path transform="matrix(1.00002,0,0,-1.00002,64.668,125.17227)" stroke-width=".3985" stroke-linecap="butt" stroke-miterlimit="10" stroke-linejoin="miter" fill="none" stroke="#000000" d=""/>
<use data-text="c" xlink:href="#font_1_4" transform="matrix(9.962799,0,0,-9.962799,257.44987,119.16115)"/>
<use data-text="T" xlink:href="#font_1_1" transform="matrix(9.962799,0,0,-9.962799,261.75379,119.16115)"/>
<use data-text="(" xlink:href="#font_3_1" transform="matrix(9.962799,0,0,-9.962799,268.9671,119.16115)"/>
<use data-text="v" xlink:href="#font_2_1" transform="matrix(9.962799,0,0,-9.962799,272.84217,119.16115)"/>
<use data-text=")" xlink:href="#font_3_2" transform="matrix(9.962799,0,0,-9.962799,279.04829,119.16115)"/>
<path transform="matrix(1.00002,0,0,-1.00002,64.668,125.17227)" d="M2.24162 56.69362C2.24162 57.93163 1.238 58.93524 0 58.93524-1.238 58.93524-2.24162 57.93163-2.24162 56.69362-2.24162 55.4556-1.238 54.452 0 54.452 1.238 54.452 2.24162 55.4556 2.24162 56.69362ZM0 56.69362"/>
<path transform="matrix(1.00002,0,0,-1.00002,64.668,125.17227)" d="M-26.10518-28.3468C-26.10518-27.10878-27.10878-26.10518-28.3468-26.10518-29.58482-26.10518-30.58842-27.10878-30.58842-28.3468-30.58842-29.58482-29.58482-30.58842-28.3468-30.58842-27.10878-30.58842-26.10518-29.58482-26.10518-28.3468ZM-28.3468-28.3468"/>
<path transform="matrix(1.00002,0,0,-1.00002,64.668,125.17227)" d="M229.0161 63.7803C229.0161 65.01833 228.0125 66.02193 226.77448 66.02193 225.53646 66.02193 224.53285 65.01833 224.53285 63.7803 224.53285 62.54228 225.53646 61.53868 226.77448 61.53868 228.0125 61.53868 229.0161 62.54228 229.0161 63.7803ZM226.77448 63.7803"/>
<path transform="matrix(1.00002,0,0,-1.00002,64.668,125.17227)" d="M229.0161-56.69362C229.0161-55.4556 228.0125-54.452 226.77448-54.452 225.53646-54.452 224.53285-55.4556 224.53285-56.69362 224.53285-57.93163 225.53646-58.93524 226.77448-58.93524 228.0125-58.93524 229.0161-57.93163 229.0161-56.69362ZM226.77448-56.69362"/>
<path transform="matrix(1.00002,0,0,-1.00002,64.668,125.17227)" d="M207.75598 0C207.75598 1.238 206.75237 2.24162 205.51436 2.24162 204.27634 2.24162 203.27274 1.238 203.27274 0 203.27274-1.238 204.27634-2.24162 205.51436-2.24162 206.75237-2.24162 207.75598-1.238 207.75598 0ZM205.51436 0"/>
<path transform="matrix(1.00002,0,0,-1.00002,64.668,125.17227)" stroke-width=".3985" stroke-linecap="butt" stroke-miterlimit="10" stroke-linejoin="miter" fill="none" stroke="#000000" d="M3.81851 56.8127 222.85636 63.65826"/>
<path transform="matrix(-.99949,.031220627,.031220627,.99949,68.38703,68.361537)" stroke-width=".3985" stroke-linecap="butt" stroke-miterlimit="10" stroke-linejoin="miter" fill="none" stroke="#000000" d="M0 2.29141V-2.29141"/>
<path transform="matrix(.99949,-.031220627,-.031220627,-.99949,287.72798,61.50654)" stroke-width=".3985" stroke-linecap="round" stroke-linejoin="round" fill="none" stroke="#000000" d="M-2.07224 2.39104C-1.69365 .95639-.84999 .27895 0 0-.84999-.27895-1.69365-.95639-2.07224-2.39104"/>
<path transform="matrix(1.00002,0,0,-1.00002,64.668,125.17227)" stroke-width=".3985" stroke-linecap="butt" stroke-miterlimit="10" stroke-linejoin="miter" fill="none" stroke="#000000" d="M-24.52995-28.77008 222.85861-56.25998"/>
<path transform="matrix(-.9938699,-.11041221,-.11041221,.9938699,40.038537,153.93195)" stroke-width=".3985" stroke-linecap="butt" stroke-miterlimit="10" stroke-linejoin="miter" fill="none" stroke="#000000" d="M0 2.29141V-2.29141"/>
<path transform="matrix(.9938699,.11041221,.11041221,-.9938699,287.7291,181.45536)" stroke-width=".3985" stroke-linecap="round" stroke-linejoin="round" fill="none" stroke="#000000" d="M-2.07224 2.39104C-1.69365 .95639-.84999 .27895 0 0-.84999-.27895-1.69365-.95639-2.07224-2.39104"/>
</svg>
